<svg xmlns="http://www.w3.org/2000/svg" viewBox="0 0 1024 1024" width="1024" height="1024"><path fill="#E22418" fill-rule="nonzero" d="M325.1 47.0 L327.0 46.5 L329.6 48.0 L346.8 61.0 L356.5 70.0 L372.0 87.0 L383.4 102.0 L391.3 114.0 L407.9 147.0 L410.6 150.0 L424.9 162.0 L432.2 170.0 L443.0 184.1 L451.5 198.0 L461.3 217.0 L485.5 277.0 L494.6 297.0 L497.3 321.0 L504.7 359.0 L509.0 375.3 L518.9 406.0 L530.7 433.0 L535.8 443.0 L550.9 468.0 L564.0 485.6 L576.0 499.9 L590.9 516.0 L640.7 565.0 L671.0 592.3 L698.0 613.0 L723.0 629.1 L743.3 640.0 L777.5 655.0 L813.0 668.4 L818.0 670.6 L820.9 673.0 L822.0 686.0 L822.1 701.0 L818.8 733.0 L825.2 748.0 L830.7 766.0 L834.0 781.3 L835.8 801.0 L835.6 814.0 L834.0 828.0 L831.5 840.0 L828.5 850.0 L822.2 865.0 L813.5 880.0 L805.5 891.0 L789.8 908.0 L771.0 924.3 L755.0 935.2 L740.0 943.7 L724.0 951.4 L705.0 958.8 L688.0 964.3 L666.0 969.5 L648.0 972.5 L617.0 975.9 L596.0 977.0 L581.0 977.1 L555.0 976.1 L523.0 972.6 L491.0 967.4 L434.0 954.5 L375.0 939.7 L332.0 931.2 L299.0 926.8 L280.0 925.8 L262.0 925.8 L245.0 926.9 L229.2 929.0 L201.0 935.4 L175.7 944.0 L160.0 950.7 L139.7 961.0 L138.0 961.6 L137.6 961.0 L141.6 944.0 L146.0 930.0 L156.5 905.0 L165.4 889.0 L171.9 879.0 L180.7 867.0 L189.0 857.4 L201.0 845.2 L212.0 835.6 L234.0 820.0 L249.0 811.7 L263.1 805.0 L274.0 800.6 L290.0 795.5 L319.0 788.7 L333.0 786.6 L354.0 784.6 L390.0 784.4 L418.0 786.6 L446.0 790.8 L478.0 797.7 L548.0 816.5 L594.0 827.3 L624.0 831.4 L648.0 832.4 L667.0 831.5 L677.0 830.2 L693.0 827.3 L704.0 824.2 L722.0 816.4 L735.0 809.1 L746.0 801.3 L756.4 792.0 L756.0 791.3 L755.0 791.7 L738.0 800.5 L720.0 807.2 L712.0 809.4 L688.0 813.4 L665.0 814.7 L645.0 814.4 L609.0 810.3 L578.0 803.7 L545.0 794.6 L537.0 781.9 L530.4 767.0 L526.6 754.0 L524.3 737.0 L524.6 720.0 L527.2 705.0 L531.5 692.0 L537.8 680.0 L544.2 671.0 L554.0 660.8 L562.0 654.6 L571.0 648.7 L580.0 644.5 L593.0 640.3 L606.0 637.9 L620.0 637.4 L639.0 639.6 L640.2 639.0 L624.0 632.8 L610.0 629.8 L594.0 628.8 L577.0 630.9 L561.0 636.3 L547.0 643.8 L537.0 651.5 L524.0 665.4 L525.2 642.0 L524.5 620.0 L520.3 595.0 L515.0 577.4 L514.2 609.0 L513.0 625.0 L510.8 642.0 L506.6 666.0 L502.2 686.0 L495.6 711.0 L475.7 776.0 L475.0 776.9 L474.0 776.9 L439.0 769.6 L413.0 766.2 L412.6 765.0 L416.0 741.9 L419.1 710.0 L420.1 687.0 L420.0 667.5 L418.1 635.0 L416.1 619.0 L411.5 596.0 L407.3 580.0 L398.4 556.0 L394.0 546.1 L392.9 545.0 L396.6 566.0 L401.2 602.0 L402.4 622.0 L402.6 637.0 L402.0 637.8 L394.0 628.4 L363.5 600.0 L337.7 573.0 L328.0 561.0 L313.9 541.0 L307.7 531.0 L299.8 516.0 L293.6 501.0 L289.5 488.0 L285.8 472.0 L283.9 457.0 L283.3 445.0 L283.7 428.0 L285.7 410.0 L289.9 383.0 L291.3 366.0 L291.1 355.0 L290.0 348.6 L287.7 341.0 L284.4 334.0 L280.0 327.6 L272.0 320.8 L263.0 316.4 L253.0 313.0 L241.0 310.8 L229.0 310.4 L184.0 312.3 L176.0 311.4 L164.0 308.4 L154.0 304.2 L143.0 297.3 L131.0 286.9 L122.6 277.0 L118.8 268.0 L118.5 263.0 L120.0 260.1 L123.0 257.8 L170.0 234.1 L183.0 226.3 L190.2 221.0 L196.3 215.0 L201.3 208.0 L212.7 184.0 L223.5 168.0 L229.9 161.0 L237.0 154.6 L246.0 147.8 L258.8 140.0 L259.5 139.0 L252.7 116.0 L248.5 97.0 L245.9 76.0 L246.0 59.0 L247.0 58.3 L249.0 58.8 L257.0 62.0 L270.0 68.7 L280.0 74.8 L301.0 90.6 L312.0 101.1 L313.1 99.0 L314.9 83.0 L317.4 70.0 L320.6 58.0 Z M672.6 230.0 L673.4 230.0 L674.3 234.0 L684.3 288.0 L687.4 306.0 L687.0 308.3 L628.0 294.0 L628.5 292.0 Z M833.1 285.0 L834.1 285.0 L834.2 286.0 L829.7 300.0 L801.5 384.0 L800.3 387.0 L799.0 387.9 L740.0 335.4 L738.3 333.0 Z M523.5 293.0 L528.0 293.5 L532.0 295.5 L554.0 311.9 L596.0 301.0 L600.0 300.5 L710.0 326.7 L804.6 411.0 L806.8 415.0 L809.4 422.0 L842.5 519.0 L828.9 611.0 L830.0 615.0 L839.2 631.0 L843.6 640.0 L844.3 646.0 L843.5 649.0 L841.4 652.0 L836.0 654.2 L830.0 653.3 L783.0 635.5 L747.0 619.5 L730.0 610.1 L716.0 601.4 L692.4 584.0 L665.0 560.4 L619.1 516.0 L588.7 484.0 L572.6 464.0 L560.6 446.0 L547.8 422.0 L541.5 408.0 L534.6 390.0 L524.9 356.0 L518.5 326.0 L516.4 312.0 L515.7 305.0 L516.5 299.0 L519.0 294.8 Z M826.7 431.0 L831.0 430.6 L894.0 433.7 L902.0 434.3 L903.2 435.0 L851.4 487.0 L848.0 490.4 L847.0 490.4 Z M851.7 544.0 L854.0 544.7 L872.0 556.3 L901.0 575.5 L902.0 577.0 L851.0 591.6 L845.0 593.0 L844.0 592.5 Z M332.7 597.0 L333.0 596.6 L379.5 641.0 L391.4 657.0 L397.8 671.0 L400.3 683.0 L400.3 702.0 L396.6 738.0 L392.5 763.0 L391.0 765.0 L365.0 764.5 L344.0 765.9 L342.9 765.0 L347.1 728.0 L347.7 704.0 L347.1 681.0 L344.9 658.0 L342.5 641.0 L338.3 620.0 Z"/></svg>
